<svg xmlns="http://www.w3.org/2000/svg" viewBox="0 0 1200 440" width="1200" height="440" preserveAspectRatio="xMidYMid slice" role="presentation">
  <defs>
    <radialGradient id="glans">
      <stop offset="0" stop-color="#FFF6DA" stop-opacity="0.8"/>
      <stop offset="0.35" stop-color="#E9C87A" stop-opacity="0.4"/>
      <stop offset="1" stop-color="#E9C87A" stop-opacity="0"/>
    </radialGradient>
  </defs>
  <circle cx="1106.6" cy="305.5" r="1.2" fill="#F0D391" opacity="0.5"/>
  <circle cx="922.9" cy="420.9" r="2" fill="#F0D391" opacity="0.2"/>
  <circle cx="1173.6" cy="88.4" r="1.6" fill="#F0D391" opacity="0.3"/>
  <circle cx="613.7" cy="314.1" r="2" fill="#F0D391" opacity="0.6"/>
  <circle cx="254.7" cy="314.9" r="1.5" fill="#F0D391" opacity="0.5"/>
  <circle cx="92.4" cy="176.2" r="1" fill="#F0D391" opacity="0.7"/>
  <circle cx="411.6" cy="381.6" r="1.8" fill="#F0D391" opacity="0.4"/>
  <circle cx="451.4" cy="261.9" r="0.9" fill="#F0D391" opacity="0.3"/>
  <circle cx="946.2" cy="340.7" r="1.1" fill="#F0D391" opacity="0.6"/>
  <circle cx="115.8" cy="391.5" r="1.3" fill="#F0D391" opacity="0.7"/>
  <circle cx="818.7" cy="241.7" r="1.3" fill="#F0D391" opacity="0.6"/>
  <circle cx="498.9" cy="221.1" r="0.7" fill="#F0D391" opacity="0.3"/>
  <circle cx="251" cy="291.6" r="2.2" fill="#F0D391" opacity="0.3"/>
  <circle cx="1150.8" cy="185.8" r="1.5" fill="#F0D391" opacity="0.7"/>
  <circle cx="931.6" cy="414.5" r="1.2" fill="#F0D391" opacity="0.5"/>
  <circle cx="49.8" cy="192.9" r="0.6" fill="#F0D391" opacity="0.3"/>
  <circle cx="228.8" cy="383" r="1.3" fill="#F0D391" opacity="0.3"/>
  <circle cx="1041.5" cy="211.4" r="2.3" fill="#F0D391" opacity="0.5"/>
  <circle cx="140.6" cy="224.1" r="1" fill="#F0D391" opacity="0.3"/>
  <circle cx="967" cy="322.4" r="2.3" fill="#F0D391" opacity="0.5"/>
  <circle cx="1133.7" cy="275.9" r="1.9" fill="#F0D391" opacity="0.4"/>
  <circle cx="1194.6" cy="55.3" r="2.2" fill="#F0D391" opacity="0.3"/>
  <circle cx="1104.4" cy="94.8" r="2.3" fill="#F0D391" opacity="0.5"/>
  <circle cx="677.2" cy="397.5" r="1.4" fill="#F0D391" opacity="0.5"/>
  <circle cx="953.6" cy="316.5" r="0.6" fill="#F0D391" opacity="0.6"/>
  <circle cx="828.8" cy="295.4" r="2.2" fill="#F0D391" opacity="0.5"/>
  <circle cx="1099.8" cy="21.2" r="1.7" fill="#F0D391" opacity="0.5"/>
  <circle cx="599.4" cy="231" r="0.9" fill="#F0D391" opacity="0.6"/>
  <circle cx="1165.4" cy="177.5" r="2.2" fill="#F0D391" opacity="0.4"/>
  <circle cx="535.8" cy="380.1" r="1.2" fill="#F0D391" opacity="0.4"/>
  <circle cx="10.9" cy="28.8" r="2.1" fill="#F0D391" opacity="0.4"/>
  <circle cx="1183.4" cy="433" r="0.7" fill="#F0D391" opacity="0.6"/>
  <circle cx="779.4" cy="67.3" r="2" fill="#F0D391" opacity="0.6"/>
  <circle cx="53.7" cy="172.4" r="1.7" fill="#F0D391" opacity="0.4"/>
  <circle cx="142.4" cy="432.3" r="1.5" fill="#F0D391" opacity="0.7"/>
  <circle cx="839.2" cy="231.8" r="2.1" fill="#F0D391" opacity="0.3"/>
  <circle cx="958" cy="392.8" r="0.6" fill="#F0D391" opacity="0.6"/>
  <circle cx="497.7" cy="150.5" r="1.7" fill="#F0D391" opacity="0.7"/>
  <circle cx="1147.9" cy="437.7" r="0.9" fill="#F0D391" opacity="0.3"/>
  <circle cx="860.9" cy="320.7" r="1.2" fill="#F0D391" opacity="0.5"/>
  <circle cx="960.8" cy="297.7" r="0.5" fill="#F0D391" opacity="0.4"/>
  <circle cx="148.2" cy="186.9" r="1.1" fill="#F0D391" opacity="0.5"/>
  <circle cx="607.1" cy="221.1" r="2.1" fill="#F0D391" opacity="0.7"/>
  <circle cx="745.1" cy="184.4" r="1.7" fill="#F0D391" opacity="0.3"/>
  <circle cx="1011.7" cy="202.5" r="1.1" fill="#F0D391" opacity="0.6"/>
  <circle cx="274" cy="205.8" r="0.7" fill="#F0D391" opacity="0.4"/>
  <circle cx="129" cy="66.9" r="1.2" fill="#F0D391" opacity="0.3"/>
  <circle cx="216.7" cy="221" r="1.7" fill="#F0D391" opacity="0.5"/>
  <circle cx="433.9" cy="418.4" r="1.1" fill="#F0D391" opacity="0.7"/>
  <circle cx="1030.1" cy="283.8" r="1.9" fill="#F0D391" opacity="0.2"/>
  <circle cx="1189" cy="408.1" r="2.1" fill="#F0D391" opacity="0.5"/>
  <circle cx="994.2" cy="164.3" r="2" fill="#F0D391" opacity="0.4"/>
  <circle cx="1175.5" cy="124.5" r="1.1" fill="#F0D391" opacity="0.3"/>
  <circle cx="149.7" cy="1.9" r="1.2" fill="#F0D391" opacity="0.5"/>
  <circle cx="151.7" cy="303.9" r="1" fill="#F0D391" opacity="0.5"/>
  <circle cx="572.9" cy="350.6" r="0.7" fill="#F0D391" opacity="0.7"/>
  <circle cx="44.1" cy="120.3" r="0.8" fill="#F0D391" opacity="0.3"/>
  <circle cx="1073.2" cy="315" r="1.1" fill="#F0D391" opacity="0.4"/>
  <circle cx="237.7" cy="339.9" r="0.6" fill="#F0D391" opacity="0.2"/>
  <circle cx="134.8" cy="158.1" r="1.7" fill="#F0D391" opacity="0.6"/>
  <circle cx="1106.4" cy="438.3" r="2.1" fill="#F0D391" opacity="0.4"/>
  <circle cx="182.1" cy="14.5" r="1.7" fill="#F0D391" opacity="0.6"/>
  <circle cx="594.7" cy="406.3" r="2.3" fill="#F0D391" opacity="0.3"/>
  <circle cx="138.5" cy="72.7" r="1.8" fill="#F0D391" opacity="0.2"/>
  <circle cx="173.8" cy="260.3" r="1.5" fill="#F0D391" opacity="0.3"/>
  <circle cx="720.1" cy="127.4" r="1.9" fill="#F0D391" opacity="0.7"/>
  <circle cx="1169.5" cy="211.1" r="2.2" fill="#F0D391" opacity="0.3"/>
  <circle cx="353.1" cy="268.8" r="1" fill="#F0D391" opacity="0.7"/>
  <circle cx="173.8" cy="54.2" r="2.2" fill="#F0D391" opacity="0.5"/>
  <circle cx="754.4" cy="125.5" r="1.5" fill="#F0D391" opacity="0.2"/>
  <circle cx="1180.5" cy="422.3" r="2" fill="#F0D391" opacity="0.3"/>
  <circle cx="1176.4" cy="371.4" r="1.1" fill="#F0D391" opacity="0.3"/>
  <circle cx="1066.8" cy="338.8" r="2" fill="#F0D391" opacity="0.3"/>
  <circle cx="194.8" cy="403.9" r="0.6" fill="#F0D391" opacity="0.2"/>
  <circle cx="222.3" cy="268.9" r="1.9" fill="#F0D391" opacity="0.2"/>
  <circle cx="754.2" cy="17.8" r="2" fill="#F0D391" opacity="0.3"/>
  <circle cx="9.5" cy="389.2" r="0.7" fill="#F0D391" opacity="0.6"/>
  <circle cx="644.3" cy="154.3" r="1.1" fill="#F0D391" opacity="0.5"/>
  <circle cx="174.8" cy="358.9" r="1.1" fill="#F0D391" opacity="0.3"/>
  <circle cx="783.2" cy="392.1" r="2" fill="#F0D391" opacity="0.3"/>
  <circle cx="73.7" cy="128.3" r="1.2" fill="#F0D391" opacity="0.3"/>
  <circle cx="1125.9" cy="308.1" r="1" fill="#F0D391" opacity="0.6"/>
  <circle cx="537.2" cy="79.3" r="0.9" fill="#F0D391" opacity="0.6"/>
  <circle cx="64.5" cy="378.9" r="2.1" fill="#F0D391" opacity="0.7"/>
  <circle cx="1121.5" cy="99" r="2" fill="#F0D391" opacity="0.5"/>
  <circle cx="716.5" cy="397.9" r="1.7" fill="#F0D391" opacity="0.3"/>
  <circle cx="856.4" cy="157.4" r="2.2" fill="#F0D391" opacity="0.5"/>
  <circle cx="208.9" cy="366" r="1.7" fill="#F0D391" opacity="0.6"/>
  <circle cx="552.1" cy="128.3" r="1.3" fill="#F0D391" opacity="0.4"/>
  <circle cx="642.7" cy="410.5" r="1.1" fill="#F0D391" opacity="0.3"/>
  <circle cx="771.2" cy="11.1" r="1.8" fill="#F0D391" opacity="0.7"/>
  <circle cx="987.9" cy="117.3" r="1.3" fill="#F0D391" opacity="0.7"/>
  <circle cx="1084.1" cy="403.4" r="1.8" fill="#F0D391" opacity="0.5"/>
  <g transform="translate(787.8 88.9) rotate(-23)"><circle r="8" fill="url(#glans)"/><path d="M0 -5 C0 -0.7000000000000001 0.7000000000000001 0 5 0 C0.7000000000000001 0 0 0.7000000000000001 0 5 C0 0.7000000000000001 -0.7000000000000001 0 -5 0 C-0.7000000000000001 0 0 -0.7000000000000001 0 -5 Z" fill="#FFF8E7" opacity="0.9"/></g>
  <g transform="translate(934.2 297.1) rotate(-15)"><circle r="8.4" fill="url(#glans)"/><path d="M0 -5.3 C0 -0.742 0.742 0 5.3 0 C0.742 0 0 0.742 0 5.3 C0 0.742 -0.742 0 -5.3 0 C-0.742 0 0 -0.742 0 -5.3 Z" fill="#FFF8E7" opacity="0.9"/></g>
  <g transform="translate(153.9 165.8) rotate(-2)"><circle r="11.9" fill="url(#glans)"/><path d="M0 -7.5 C0 -1.05 1.05 0 7.5 0 C1.05 0 0 1.05 0 7.5 C0 1.05 -1.05 0 -7.5 0 C-1.05 0 0 -1.05 0 -7.5 Z" fill="#FFF8E7" opacity="0.9"/></g>
  <g transform="translate(31 184.4) rotate(20)"><circle r="14.6" fill="url(#glans)"/><path d="M0 -9.1 C0 -1.274 1.274 0 9.1 0 C1.274 0 0 1.274 0 9.1 C0 1.274 -1.274 0 -9.1 0 C-1.274 0 0 -1.274 0 -9.1 Z" fill="#FFF8E7" opacity="0.9"/></g>
  <g transform="translate(280 191.3) rotate(1)"><circle r="10.4" fill="url(#glans)"/><path d="M0 -6.5 C0 -0.9100000000000001 0.9100000000000001 0 6.5 0 C0.9100000000000001 0 0 0.9100000000000001 0 6.5 C0 0.9100000000000001 -0.9100000000000001 0 -6.5 0 C-0.9100000000000001 0 0 -0.9100000000000001 0 -6.5 Z" fill="#FFF8E7" opacity="0.9"/></g>
  <g transform="translate(754.2 103.2) rotate(-24)"><circle r="4.9" fill="url(#glans)"/><path d="M0 -3.1 C0 -0.43400000000000005 0.43400000000000005 0 3.1 0 C0.43400000000000005 0 0 0.43400000000000005 0 3.1 C0 0.43400000000000005 -0.43400000000000005 0 -3.1 0 C-0.43400000000000005 0 0 -0.43400000000000005 0 -3.1 Z" fill="#FFF8E7" opacity="0.9"/></g>
  <g transform="translate(354.8 194.4) rotate(0)"><circle r="14.7" fill="url(#glans)"/><path d="M0 -9.2 C0 -1.288 1.288 0 9.2 0 C1.288 0 0 1.288 0 9.2 C0 1.288 -1.288 0 -9.2 0 C-1.288 0 0 -1.288 0 -9.2 Z" fill="#FFF8E7" opacity="0.9"/></g>
  <g transform="translate(216.9 63.6) rotate(6)"><circle r="13.8" fill="url(#glans)"/><path d="M0 -8.6 C0 -1.204 1.204 0 8.6 0 C1.204 0 0 1.204 0 8.6 C0 1.204 -1.204 0 -8.6 0 C-1.204 0 0 -1.204 0 -8.6 Z" fill="#FFF8E7" opacity="0.9"/></g>
  <g transform="translate(909.3 232.1) rotate(18)"><circle r="5.1" fill="url(#glans)"/><path d="M0 -3.2 C0 -0.44800000000000006 0.44800000000000006 0 3.2 0 C0.44800000000000006 0 0 0.44800000000000006 0 3.2 C0 0.44800000000000006 -0.44800000000000006 0 -3.2 0 C-0.44800000000000006 0 0 -0.44800000000000006 0 -3.2 Z" fill="#FFF8E7" opacity="0.9"/></g>
  <g transform="translate(99 332.2) rotate(-8)"><circle r="12" fill="url(#glans)"/><path d="M0 -7.5 C0 -1.05 1.05 0 7.5 0 C1.05 0 0 1.05 0 7.5 C0 1.05 -1.05 0 -7.5 0 C-1.05 0 0 -1.05 0 -7.5 Z" fill="#FFF8E7" opacity="0.9"/></g>
</svg>
